<?xml version="1.0" standalone="no"?>
<!DOCTYPE svg PUBLIC "-//W3C//DTD SVG 20010904//EN"
 "http://www.w3.org/TR/2001/REC-SVG-20010904/DTD/svg10.dtd">
<svg version="1.0" xmlns="http://www.w3.org/2000/svg"
 width="204.000000pt" height="192.000000pt" viewBox="0 0 204.000000 192.000000"
 preserveAspectRatio="xMidYMid meet">

<g transform="translate(0.000000,192.000000) scale(0.100000,-0.100000)"
fill="#000000" stroke="none">
<path d="M153 1278 l-153 -153 0 -125 0 -125 233 -233 c128 -128 236 -229 241
-225 4 4 6 4 5 -2 -4 -14 91 -106 102 -99 5 3 6 -2 3 -10 -7 -19 12 -22 20 -3
3 6 3 2 0 -10 -3 -13 -1 -23 4 -23 13 0 24 29 16 43 -5 9 -4 9 5 1 10 -9 10
-17 1 -34 -13 -24 3 -55 23 -43 5 3 7 1 4 -4 -9 -14 29 -47 44 -37 8 4 10 3 5
-5 -11 -17 12 -41 31 -34 10 4 14 2 10 -4 -4 -6 7 -23 25 -38 27 -23 39 -26
72 -22 37 5 95 50 89 69 -2 5 2 8 9 8 23 0 76 61 71 81 -3 12 -12 19 -22 17
-23 -5 -21 -34 3 -30 16 3 15 0 -5 -21 -23 -24 -97 -47 -84 -27 3 6 17 10 29
10 13 0 29 7 36 15 11 13 8 16 -19 21 -28 6 -31 10 -31 45 0 33 -3 39 -21 39
-19 0 -21 -5 -18 -43 4 -40 2 -43 -18 -39 -22 4 -23 9 -23 83 0 72 -2 79 -20
79 -17 0 -20 -7 -20 -40 0 -33 -3 -40 -20 -40 -18 0 -20 7 -20 80 0 73 -2 80
-20 80 -17 0 -20 -7 -20 -40 0 -33 -3 -40 -20 -40 -18 0 -20 7 -20 80 0 69 -2
80 -17 80 -21 1 -114 79 -95 80 7 0 10 5 7 10 -4 6 -10 8 -15 5 -5 -3 -11 4
-15 15 -5 16 13 39 82 111 145 151 157 164 181 191 l23 25 -218 217 -218 216
-44 0 c-44 0 -46 -2 -198 -152z m377 -629 c0 -5 -7 -9 -15 -9 -15 0 -20 12 -9
23 8 8 24 -1 24 -14z m-50 -39 c0 -5 -5 -10 -11 -10 -5 0 -7 5 -4 10 3 6 8 10
11 10 2 0 4 -4 4 -10z m-35 -29 c3 -5 1 -12 -5 -16 -5 -3 -10 1 -10 9 0 18 6
21 15 7z m98 -28 c-13 -2 -33 -2 -45 0 -13 2 -3 4 22 4 25 0 35 -2 23 -4z m97
-33 c0 -33 -3 -40 -20 -40 -17 0 -20 7 -20 40 0 33 3 40 20 40 17 0 20 -7 20
-40z m-176 -48 c2 -4 -4 -8 -14 -8 -10 0 -16 4 -14 8 3 4 9 8 14 8 5 0 11 -4
14 -8z m96 -102 c0 -5 -5 -10 -11 -10 -5 0 -7 5 -4 10 3 6 8 10 11 10 2 0 4
-4 4 -10z m157 -145 c0 -8 -4 -12 -9 -9 -5 3 -6 10 -3 15 9 13 12 11 12 -6z
m243 -5 c0 -5 -6 -10 -14 -10 -8 0 -18 5 -21 10 -3 6 3 10 14 10 12 0 21 -4
21 -10z m-65 -10 c3 -5 1 -10 -4 -10 -6 0 -11 5 -11 10 0 6 2 10 4 10 3 0 8
-4 11 -10z m-115 -65 c-7 -9 -15 -13 -17 -11 -7 7 7 26 19 26 6 0 6 -6 -2 -15z
m102 -8 c9 -1 14 -5 12 -9 -6 -10 -55 1 -69 15 -7 6 -2 7 15 2 14 -4 33 -7 42
-8z m-67 -17 c13 -6 15 -9 5 -9 -8 0 -22 4 -30 9 -18 12 -2 12 25 0z"/>
<path d="M695 790 c3 -5 8 -10 11 -10 2 0 4 5 4 10 0 6 -5 10 -11 10 -5 0 -7
-4 -4 -10z"/>
<path d="M620 721 c0 -6 5 -13 10 -16 6 -3 10 1 10 9 0 9 -4 16 -10 16 -5 0
-10 -4 -10 -9z"/>
<path d="M1130 396 c0 -2 7 -7 16 -10 8 -3 12 -2 9 4 -6 10 -25 14 -25 6z"/>
<path d="M1031 304 c0 -11 3 -14 6 -6 3 7 2 16 -1 19 -3 4 -6 -2 -5 -13z"/>
</g>
</svg>
